<svg width="207" height="39" viewBox="0 0 207 39" fill="none" xmlns="http://www.w3.org/2000/svg">
<path d="M2.088 32.288C1.416 32.288 0.9 32.096 0.54 31.712C0.18 31.328 0 30.8 0 30.128V8.492C0 7.79601 0.192 7.26801 0.576 6.90801C0.96 6.52401 1.488 6.332 2.16 6.332C2.76 6.332 3.228 6.45201 3.564 6.69201C3.924 6.90801 4.248 7.29201 4.536 7.84401L13.428 24.296H12.276L21.168 7.84401C21.456 7.29201 21.768 6.90801 22.104 6.69201C22.44 6.45201 22.908 6.332 23.508 6.332C24.18 6.332 24.696 6.52401 25.056 6.90801C25.416 7.26801 25.596 7.79601 25.596 8.492V30.128C25.596 30.8 25.416 31.328 25.056 31.712C24.72 32.096 24.204 32.288 23.508 32.288C22.836 32.288 22.32 32.096 21.96 31.712C21.6 31.328 21.42 30.8 21.42 30.128V13.46H22.212L14.652 27.248C14.412 27.656 14.16 27.956 13.896 28.148C13.632 28.34 13.272 28.436 12.816 28.436C12.36 28.436 11.988 28.34 11.7 28.148C11.412 27.932 11.16 27.632 10.944 27.248L3.312 13.424H4.176V30.128C4.176 30.8 3.996 31.328 3.636 31.712C3.3 32.096 2.784 32.288 2.088 32.288Z" fill="#1F353D"/>
<path d="M35.2139 38.768C34.6859 38.768 34.2539 38.624 33.9179 38.336C33.5819 38.072 33.3779 37.712 33.3059 37.256C33.2579 36.8 33.3419 36.32 33.5579 35.816L36.0059 30.38V32.252L29.4539 17.096C29.2379 16.568 29.1659 16.076 29.2379 15.62C29.3099 15.164 29.5259 14.804 29.8859 14.54C30.2699 14.252 30.7859 14.108 31.4339 14.108C31.9859 14.108 32.4299 14.24 32.7659 14.504C33.1019 14.744 33.4019 15.212 33.6659 15.908L38.5259 28.04H37.4459L42.4139 15.872C42.6779 15.2 42.9899 14.744 43.3499 14.504C43.7099 14.24 44.1899 14.108 44.7899 14.108C45.3179 14.108 45.7379 14.252 46.0499 14.54C46.3619 14.804 46.5539 15.164 46.6259 15.62C46.6979 16.052 46.6139 16.532 46.3739 17.06L37.6259 37.04C37.3139 37.712 36.9779 38.168 36.6179 38.408C36.2579 38.648 35.7899 38.768 35.2139 38.768Z" fill="#1F353D"/>
<path d="M52.4711 32C51.7271 32 51.1511 31.796 50.7431 31.388C50.3351 30.956 50.1311 30.368 50.1311 29.624V8.85201C50.1311 8.08401 50.3231 7.50801 50.7071 7.12401C51.1151 6.71601 51.6911 6.51201 52.4351 6.51201C53.1791 6.51201 53.7431 6.71601 54.1271 7.12401C54.5351 7.50801 54.7391 8.08401 54.7391 8.85201V28.076H65.1791C65.8271 28.076 66.3191 28.244 66.6551 28.58C67.0151 28.916 67.1951 29.396 67.1951 30.02C67.1951 30.644 67.0151 31.136 66.6551 31.496C66.3191 31.832 65.8271 32 65.1791 32H52.4711Z" fill="#1F353D"/>
<path d="M72.146 32.252C71.426 32.252 70.874 32.036 70.49 31.604C70.106 31.172 69.914 30.572 69.914 29.804V16.592C69.914 15.8 70.106 15.2 70.49 14.792C70.874 14.36 71.426 14.144 72.146 14.144C72.866 14.144 73.418 14.36 73.802 14.792C74.21 15.2 74.414 15.8 74.414 16.592V29.804C74.414 30.572 74.222 31.172 73.838 31.604C73.454 32.036 72.89 32.252 72.146 32.252ZM72.146 10.796C71.306 10.796 70.646 10.592 70.166 10.184C69.71 9.75201 69.482 9.16401 69.482 8.42001C69.482 7.65201 69.71 7.06401 70.166 6.656C70.646 6.24801 71.306 6.04401 72.146 6.04401C73.01 6.04401 73.67 6.24801 74.126 6.656C74.582 7.06401 74.81 7.65201 74.81 8.42001C74.81 9.16401 74.582 9.75201 74.126 10.184C73.67 10.592 73.01 10.796 72.146 10.796Z" fill="#1F353D"/>
<path d="M81.3217 32.288C80.6017 32.288 80.0497 32.096 79.6657 31.712C79.2817 31.304 79.0898 30.728 79.0898 29.984V16.376C79.0898 15.632 79.2817 15.068 79.6657 14.684C80.0497 14.3 80.5898 14.108 81.2858 14.108C81.9818 14.108 82.5217 14.3 82.9057 14.684C83.2897 15.068 83.4818 15.632 83.4818 16.376V18.824L83.0857 17.924C83.6137 16.652 84.4298 15.692 85.5338 15.044C86.6618 14.372 87.9338 14.036 89.3498 14.036C90.7658 14.036 91.9298 14.3 92.8418 14.828C93.7538 15.356 94.4378 16.16 94.8938 17.24C95.3498 18.296 95.5778 19.64 95.5778 21.272V29.984C95.5778 30.728 95.3857 31.304 95.0017 31.712C94.6177 32.096 94.0657 32.288 93.3457 32.288C92.6257 32.288 92.0617 32.096 91.6537 31.712C91.2697 31.304 91.0778 30.728 91.0778 29.984V21.488C91.0778 20.12 90.8138 19.124 90.2858 18.5C89.7818 17.876 88.9898 17.564 87.9098 17.564C86.5898 17.564 85.5338 17.984 84.7418 18.824C83.9738 19.64 83.5898 20.732 83.5898 22.1V29.984C83.5898 31.52 82.8337 32.288 81.3217 32.288Z" fill="#1F353D"/>
<path d="M102.38 32.288C101.66 32.288 101.108 32.096 100.724 31.712C100.34 31.304 100.148 30.728 100.148 29.984V8.60001C100.148 7.85601 100.34 7.29201 100.724 6.90801C101.108 6.52401 101.66 6.332 102.38 6.332C103.1 6.332 103.652 6.52401 104.036 6.90801C104.444 7.29201 104.648 7.85601 104.648 8.60001V21.884H104.72L110.66 15.62C111.14 15.14 111.56 14.768 111.92 14.504C112.28 14.24 112.772 14.108 113.396 14.108C114.02 14.108 114.488 14.276 114.8 14.612C115.136 14.924 115.304 15.308 115.304 15.764C115.304 16.22 115.088 16.676 114.656 17.132L108.392 23.756V21.884L115.268 29.3C115.7 29.756 115.892 30.224 115.844 30.704C115.82 31.16 115.628 31.544 115.268 31.856C114.908 32.144 114.452 32.288 113.9 32.288C113.228 32.288 112.688 32.156 112.28 31.892C111.896 31.628 111.464 31.232 110.984 30.704L104.72 24.152H104.648V29.984C104.648 31.52 103.892 32.288 102.38 32.288Z" fill="#1F353D"/>
<path d="M122.221 32C121.477 32 120.901 31.796 120.493 31.388C120.085 30.956 119.881 30.368 119.881 29.624V8.85201C119.881 8.08401 120.073 7.50801 120.457 7.12401C120.865 6.71601 121.441 6.51201 122.185 6.51201C122.929 6.51201 123.493 6.71601 123.877 7.12401C124.285 7.50801 124.489 8.08401 124.489 8.85201V28.076H134.929C135.577 28.076 136.069 28.244 136.405 28.58C136.765 28.916 136.945 29.396 136.945 30.02C136.945 30.644 136.765 31.136 136.405 31.496C136.069 31.832 135.577 32 134.929 32H122.221Z" fill="#1F353D"/>
<path d="M141.896 32.252C141.176 32.252 140.624 32.036 140.24 31.604C139.856 31.172 139.664 30.572 139.664 29.804V16.592C139.664 15.8 139.856 15.2 140.24 14.792C140.624 14.36 141.176 14.144 141.896 14.144C142.616 14.144 143.168 14.36 143.552 14.792C143.96 15.2 144.164 15.8 144.164 16.592V29.804C144.164 30.572 143.972 31.172 143.588 31.604C143.204 32.036 142.64 32.252 141.896 32.252ZM141.896 10.796C141.056 10.796 140.396 10.592 139.916 10.184C139.46 9.75201 139.232 9.16401 139.232 8.42001C139.232 7.65201 139.46 7.06401 139.916 6.656C140.396 6.24801 141.056 6.04401 141.896 6.04401C142.76 6.04401 143.42 6.24801 143.876 6.656C144.332 7.06401 144.56 7.65201 144.56 8.42001C144.56 9.16401 144.332 9.75201 143.876 10.184C143.42 10.592 142.76 10.796 141.896 10.796Z" fill="#1F353D"/>
<path d="M155.284 32.36C154.252 32.36 153.16 32.252 152.008 32.036C150.856 31.82 149.824 31.448 148.912 30.92C148.528 30.68 148.252 30.404 148.084 30.092C147.94 29.756 147.88 29.432 147.904 29.12C147.952 28.784 148.072 28.496 148.264 28.256C148.48 28.016 148.744 27.86 149.056 27.788C149.392 27.716 149.752 27.776 150.136 27.968C151.096 28.424 151.996 28.748 152.836 28.94C153.676 29.108 154.504 29.192 155.32 29.192C156.472 29.192 157.324 29 157.876 28.616C158.452 28.208 158.74 27.68 158.74 27.032C158.74 26.48 158.548 26.06 158.164 25.772C157.804 25.46 157.252 25.232 156.508 25.088L152.908 24.404C151.42 24.116 150.28 23.576 149.488 22.784C148.72 21.968 148.336 20.924 148.336 19.652C148.336 18.5 148.648 17.504 149.272 16.664C149.92 15.824 150.808 15.176 151.936 14.72C153.064 14.264 154.36 14.036 155.824 14.036C156.88 14.036 157.864 14.156 158.776 14.396C159.712 14.612 160.612 14.96 161.476 15.44C161.836 15.632 162.076 15.884 162.196 16.196C162.34 16.508 162.376 16.832 162.304 17.168C162.232 17.48 162.088 17.768 161.872 18.032C161.656 18.272 161.38 18.428 161.044 18.5C160.732 18.548 160.372 18.476 159.964 18.284C159.22 17.9 158.5 17.624 157.804 17.456C157.132 17.288 156.484 17.204 155.86 17.204C154.684 17.204 153.808 17.408 153.232 17.816C152.68 18.224 152.404 18.764 152.404 19.436C152.404 19.94 152.572 20.36 152.908 20.696C153.244 21.032 153.76 21.26 154.456 21.38L158.056 22.064C159.616 22.352 160.792 22.88 161.584 23.648C162.4 24.416 162.808 25.448 162.808 26.744C162.808 28.496 162.124 29.876 160.756 30.884C159.388 31.868 157.564 32.36 155.284 32.36Z" fill="#1F353D"/>
<path d="M174.306 32.36C172.746 32.36 171.438 32.096 170.382 31.568C169.35 31.04 168.582 30.272 168.078 29.264C167.574 28.232 167.322 26.96 167.322 25.448V17.78H165.45C164.874 17.78 164.43 17.636 164.118 17.348C163.806 17.036 163.65 16.616 163.65 16.088C163.65 15.536 163.806 15.116 164.118 14.828C164.43 14.54 164.874 14.396 165.45 14.396H167.322V11.12C167.322 10.376 167.514 9.81201 167.898 9.42801C168.306 9.04401 168.87 8.85201 169.59 8.85201C170.31 8.85201 170.862 9.04401 171.246 9.42801C171.63 9.81201 171.822 10.376 171.822 11.12V14.396H175.638C176.214 14.396 176.658 14.54 176.97 14.828C177.282 15.116 177.438 15.536 177.438 16.088C177.438 16.616 177.282 17.036 176.97 17.348C176.658 17.636 176.214 17.78 175.638 17.78H171.822V25.196C171.822 26.348 172.074 27.212 172.578 27.788C173.082 28.364 173.898 28.652 175.026 28.652C175.434 28.652 175.794 28.616 176.106 28.544C176.418 28.472 176.694 28.424 176.934 28.4C177.222 28.376 177.462 28.472 177.654 28.688C177.846 28.88 177.942 29.288 177.942 29.912C177.942 30.392 177.858 30.824 177.69 31.208C177.546 31.568 177.27 31.82 176.862 31.964C176.55 32.06 176.142 32.144 175.638 32.216C175.134 32.312 174.69 32.36 174.306 32.36Z" fill="#1F353D"/>
<path d="M191.274 3.64773C193.114 1.80796 196.172 1.80796 198.012 3.64773C199.667 5.30249 199.912 7.94018 198.552 9.84316L198.515 9.89611C198.174 10.3694 197.512 10.4819 197.039 10.141C196.563 9.80013 196.45 9.13823 196.791 8.66497L196.827 8.61201C197.585 7.54966 197.466 6.09678 196.543 5.17342C195.503 4.13423 193.812 4.13423 192.77 5.17342L189.057 8.89001C188.014 9.90273 188.014 11.6204 189.057 12.6629C189.977 13.5862 191.433 13.7054 192.492 12.9475L192.545 12.8813C193.021 12.5702 193.683 12.6794 194.021 13.156C194.362 13.6326 194.252 14.2945 193.776 14.6353L193.723 14.6718C191.79 16.032 189.212 15.8135 187.558 14.1621C185.689 12.2922 185.689 9.26068 187.558 7.39411L191.274 3.64773ZM201.037 11.8851C199.167 13.755 196.139 13.755 194.269 11.8851C192.614 10.2304 192.399 7.62247 193.759 5.71949L193.796 5.66654C194.107 5.19328 194.769 5.08075 195.272 5.42163C195.748 5.73273 195.861 6.39463 195.52 6.89768L195.484 6.95063C194.726 7.9832 194.845 9.46587 195.768 10.3892C196.807 11.4284 198.499 11.4284 199.541 10.3892L203.254 6.67263C204.297 5.63013 204.297 3.91249 203.254 2.89978C202.334 1.97741 200.878 1.85695 199.819 2.61516L199.766 2.65156C199.29 2.99244 198.628 2.85344 198.29 2.406C197.949 1.93009 198.058 1.26851 198.535 0.928624L198.588 0.891558C200.491 -0.468292 203.099 -0.252544 204.754 1.40189C206.623 3.27044 206.623 6.30197 204.754 8.16854L201.037 11.8851Z" fill="#F4D486"/>
</svg>
